<svg viewBox="0 0 96 96" xmlns="http://www.w3.org/2000/svg" xmlns:xlink="http://www.w3.org/1999/xlink" id="Icons_CallCenter" overflow="hidden">
<path d="M76.8 63.6C72.4 60 66.8 57.6 61.2 56 57.2 54.8 52.8 54 48 54 43.6 54 39.2 54.8 34.8 56 29.2 57.6 23.6 60.4 19.2 63.6 17.2 65.2 16 67.6 16 70L16 86 80 86 80 70C80 67.6 78.8 65.2 76.8 63.6Z" fill="#203864"/>
<path d="M32.4 20.4C33 20.4 33.5 20.2 33.8 19.8L33.8 19.8C37.5 16.2 42.5 14 48 14 59 14 68 23 68 34L68 38.6 56.5 42.4C56 42.2 55.5 42 55 42 53.3 42 52 43.3 52 45 52 46.7 53.3 48 55 48 56.2 48 57.3 47.3 57.8 46.2L73.7 40.9C74.5 40.6 75.1 39.9 75.1 39L75.1 30C75.1 28.9 74.2 28 73.1 28L71.3 28C68.6 17.7 59.2 10 48 10 41.5 10 35.6 12.6 31.2 16.8 30.7 17.2 30.4 17.7 30.4 18.4 30.4 19.5 31.3 20.4 32.4 20.4Z" fill="#203864"/>
<path d="M63.9 35.7C64 35.1 64 34.6 64 34 64 25.2 56.8 18 48 18 39.2 18 32 25.2 32 34 32 42.8 39.2 50 48 50 48.3 50 48.7 50 49 49.9L49 45 49 45C49 44.1 49.2 43.2 49.6 42.3 50.3 40.9 51.5 39.8 53.1 39.3L63.9 35.7Z" fill="#203864"/></svg>