<svg viewBox="0 0 96 96" xmlns="http://www.w3.org/2000/svg" xmlns:xlink="http://www.w3.org/1999/xlink" id="Icons_RecycleSign" overflow="hidden"><path d="M15.17 70.43C15.9245 71.8841 17.3684 72.853 19 73L37 73 37 81 19 81C14.4402 80.9171 10.2689 78.4143 8.05 74.43 5.92434 70.5845 6.10925 65.8769 8.53 62.21L18.93 44.21 12.07 40.21 28.81 35.73 33.29 52.47 26 48.28 15.56 66.38C14.669 67.5454 14.5178 69.116 15.17 70.43Z" stroke="#385723" stroke-width="3.59358" fill="#385723"/><path d="M29.32 29.14 37.69 13.51C39.8856 9.55986 44.0607 7.12151 48.58 7.15 52.9739 7.24012 56.9557 9.75859 58.92 13.69L69.32 31.69 76.18 27.69 71.7 44.48 55 40 62.28 35.79 51.79 17.68C51.2203 16.3275 49.9346 15.4135 48.47 15.32 46.9277 15.3964 45.5317 16.2567 44.77 17.6L36.39 33.23Z" stroke="#385723" stroke-width="3.59358" fill="#385723"/><path d="M87.59 75.23C85.4035 78.8986 81.4095 81.104 77.14 81L56 81 56 89 43.71 76.5 56 64.34 56 73 76.87 73C78.3699 73.0999 79.7992 72.3505 80.57 71.06 81.3166 69.6943 81.2707 68.0325 80.45 66.71L71.3 51.11 78.37 47 87.53 62.59C88.0464 63.4985 88.4526 64.4653 88.74 65.47L88.91 66.13C89.6662 69.2198 89.1929 72.4824 87.59 75.23Z" stroke="#385723" stroke-width="3.59358" fill="#385723"/></svg>